<svg xmlns="http://www.w3.org/2000/svg" viewBox="0 0 128 128">
  <defs>
    <linearGradient id="g" x1="18" x2="110" y1="20" y2="108" gradientUnits="userSpaceOnUse">
      <stop stop-color="#0A84FF"/>
      <stop offset="0.58" stop-color="#7C3AED"/>
      <stop offset="1" stop-color="#00A886"/>
    </linearGradient>
  </defs>
  <rect width="128" height="128" rx="32" fill="url(#g)"/>
  <path d="M70.5 26c-7.1 0-11.6 4-13.2 12.1L48.4 82c-1.5 7.1-4.2 10.7-8.2 10.7-2.5 0-4.9-.9-7.2-2.6l-4.6 10.2c4.2 3 8.8 4.5 13.9 4.5 7.5 0 12.1-4.1 13.8-12.3l8.9-43.9c1.4-7 4-10.5 7.8-10.5 2.5 0 4.7.9 6.8 2.6l4.9-10.1C80.7 27.5 76 26 70.5 26Zm-3.1 36.3 22.3 33.6h13.6L81.5 62.3l18.9-27.7H87.3L67.4 62.3Z" fill="white"/>
</svg>
